<svg xmlns="http://www.w3.org/2000/svg"><symbol viewBox="0 0 1792 1792" id="icon-facebook-square"><path d="M1376 128q119 0 203.5 84.5t84.5 203.5v960q0 119-84.5 203.5t-203.5 84.5h-188v-595h199l30-232h-229v-148q0-56 23.5-84t91.5-28l122-1v-207q-63-9-178-9-136 0-217.5 80t-81.5 226v171h-200v232h200v595h-532q-119 0-203.5-84.5t-84.5-203.5v-960q0-119 84.5-203.5t203.5-84.5h960z"/></symbol><symbol viewBox="0 0 1792 1792" id="icon-google-plus-square"><path d="M957 1218q0 76-58.5 112.5t-139.5 36.5q-41 0-80.5-9.5t-75.5-28.5-58-53-22-78q0-46 25-80t65.5-51.5 82-25 84.5-7.5q20 0 31 2 2 1 23 16.5t26 19 23 18 24.5 22 19 22.5 17 26 9 26.5 4.5 31.5zm-74-545q0 60-33 99.5t-92 39.5q-53 0-93-42.5t-57.5-96.5-17.5-106q0-61 32-104t92-43q53 0 93.5 45t58 101 17.5 107zm106-257l88-64h-265q-85 0-161 32t-127.5 98-51.5 153q0 93 64.5 154.5t158.5 61.5q22 0 43-3-13 29-13 54 0 44 40 94-175 12-257 63-47 29-75.5 73t-28.5 95q0 43 18.5 77.5t48.5 56.5 69 37 77.5 21 76.5 6q60 0 120.5-15.5t113.5-46 86-82.5 33-117q0-49-20-89.5t-49-66.5-58-47.5-49-44-20-44.5 15.5-42.5 37.5-39.5 44-42 37.5-59.5 15.5-82.5q0-60-22.5-99.5t-72.5-90.5h83zm291 448h128v-64h-128v-128h-64v128h-128v64h128v160h64v-160zm384-448v960q0 119-84.5 203.5t-203.5 84.5h-960q-119 0-203.5-84.5t-84.5-203.5v-960q0-119 84.5-203.5t203.5-84.5h960q119 0 203.5 84.5t84.5 203.5z"/></symbol><symbol viewBox="0 0 1792 1792" id="icon-linkedin-square"><path d="M365 1414h231v-694h-231v694zm246-908q-1-52-36-86t-93-34-94.5 34-36.5 86q0 51 35.5 85.5t92.5 34.5h1q59 0 95-34.5t36-85.5zm585 908h231v-398q0-154-73-233t-193-79q-136 0-209 117h2v-101h-231q3 66 0 694h231v-388q0-38 7-56 15-35 45-59.5t74-24.5q116 0 116 157v371zm468-998v960q0 119-84.5 203.5t-203.5 84.5h-960q-119 0-203.5-84.5t-84.5-203.5v-960q0-119 84.5-203.5t203.5-84.5h960q119 0 203.5 84.5t84.5 203.5z"/></symbol><symbol viewBox="0 0 1792 1792" id="icon-twitter-square"><path d="M1408 610q-56 25-121 34 68-40 93-117-65 38-134 51-61-66-153-66-87 0-148.5 61.5t-61.5 148.5q0 29 5 48-129-7-242-65t-192-155q-29 50-29 106 0 114 91 175-47-1-100-26v2q0 75 50 133.5t123 72.5q-29 8-51 8-13 0-39-4 21 63 74.5 104t121.5 42q-116 90-261 90-26 0-50-3 148 94 322 94 112 0 210-35.5t168-95 120.5-137 75-162 24.5-168.5q0-18-1-27 63-45 105-109zm256-194v960q0 119-84.5 203.5t-203.5 84.5h-960q-119 0-203.5-84.5t-84.5-203.5v-960q0-119 84.5-203.5t203.5-84.5h960q119 0 203.5 84.5t84.5 203.5z"/></symbol><symbol viewBox="0 0 1792 1792" id="icon-xing-square"><path d="M813 765q0-1-126-222-21-34-52-34h-184q-18 0-26 11-7 12 1 29l125 216v1l-196 346q-9 14 0 28 8 13 24 13h185q31 0 50-36zm624-497q-7-12-24-12h-187q-30 0-49 35l-411 729q1 2 262 481 20 35 52 35h184q18 0 25-12 8-13-1-28l-260-476v-1l409-723q8-16 0-28zm227 148v960q0 119-84.5 203.5t-203.5 84.5h-960q-119 0-203.5-84.5t-84.5-203.5v-960q0-119 84.5-203.5t203.5-84.5h960q119 0 203.5 84.5t84.5 203.5z"/></symbol></svg>