<svg xmlns="http://www.w3.org/2000/svg" viewBox="0 0 100 100"><defs><radialGradient gradientTransform="translate(-2)" id="a" cx="50" cy="50" fx="50" fy="50" r="35" gradientUnits="userSpaceOnUse"><stop offset="0" stop-color="#5675fa"/><stop offset="1" stop-color="#5675fa" stop-opacity="0"/></radialGradient></defs><path fill="#0053bd" d="M0 0h100v100H0z"/><path d="M79.233 84.617c4.37-6.243 2.854-14.843-3.39-19.213-2.73-1.913-5.914-2.698-9-2.454v-.008c-4.633.376-9.418-.8-13.522-3.675-3.428-2.4-7.346-6.554-7.346-9.268 0-2.715 3.915-6.87 7.34-9.27 4.106-2.872 8.89-4.05 13.522-3.675v-.008c3.086.247 6.27-.538 9.004-2.452 6.24-4.37 7.757-12.97 3.388-19.212-4.37-6.24-12.97-7.757-19.213-3.387-2.73 1.912-4.558 4.638-5.382 7.62l-.008-.002c-1.233 4.48-3.974 8.576-8.078 11.45-4.436 3.105-9.668 4.23-14.642 3.554v.007c-3.74-.515-7.677.325-11.015 2.663-7.02 4.915-8.727 14.59-3.81 21.612 3.452 4.932 9.254 7.237 14.835 6.47l-.004.005v.006c4.974-.673 10.205.45 14.642 3.556 4.105 2.874 6.846 6.968 8.08 11.448h.008c.824 2.982 2.65 5.707 5.382 7.62 6.24 4.37 14.84 2.853 19.21-3.387z" fill="#f78e04" stroke="url(#a)" stroke-width="3"/></svg>